<svg viewBox="0 0 28 28" fill="none" xmlns="http://www.w3.org/2000/svg">
<path d="M10.0268 13.1191C11.3611 11.8024 13.6883 11.8024 15.0227 13.1191L15.8554 13.9407L17.5207 12.2975L16.688 11.4759C15.5774 10.3789 14.0982 9.77344 12.5247 9.77344C10.9513 9.77344 9.47204 10.3789 8.36143 11.4759L5.86227 13.9407C3.56804 16.2056 3.56804 19.8928 5.86227 22.1577C7.01057 23.2908 8.51807 23.8567 10.0256 23.8567C11.5343 23.8567 13.0429 23.2908 14.1901 22.1577L15.0227 21.3361L13.3574 19.693L12.5247 20.5145C11.1468 21.8707 8.90555 21.873 7.52759 20.5145C6.15082 19.1549 6.15082 16.9435 7.52759 15.5838L10.0268 13.1191Z" fill="white"></path>
<path d="M13.8096 5.83971L12.977 6.6613L14.6423 8.30446L15.475 7.48288C16.8517 6.12675 19.093 6.12442 20.4721 7.48288C21.8489 8.8425 21.8489 11.0539 20.4721 12.4135L17.9729 14.8783C16.6386 16.1949 14.3114 16.1949 12.977 14.8783L12.1443 14.0567L10.479 15.6999L11.3117 16.5214C12.4223 17.6184 13.9015 18.2239 15.475 18.2239C17.0484 18.2239 18.5277 17.6184 19.6383 16.5214L22.1374 14.0567C24.4317 11.7918 24.4317 8.10459 22.1374 5.83971C19.8408 3.57368 16.1039 3.57484 13.8096 5.83971Z" fill="white"></path>
</svg>